<svg id="Layer_1" xmlns="http://www.w3.org/2000/svg" viewBox="0 0 300 300"><g fill="#fff"><path class="st0" d="M215.2 58.8c-14.2 0-25.9 11.7-25.9 25.9s11.7 25.9 25.9 25.9 25.9-11.7 25.9-25.9-11.7-25.9-25.9-25.9zm0 34.5c-4.7 0-8.6-3.9-8.6-8.6 0-4.7 3.9-8.6 8.6-8.6s8.6 3.9 8.6 8.6c0 4.7-3.9 8.6-8.6 8.6z"/><path class="st0" d="M215.2 123.5c-4.1 0-8.2 1.1-11.7 2.8L172 94.8c1.3-3.2 2.2-6.5 2.2-10.1 0-14.2-11.7-25.9-25.9-25.9s-25.9 11.7-25.9 25.9 11.7 25.9 25.9 25.9c4.3 0 8.4-1.1 12.1-3l31.3 31.3c-1.5 3.2-2.4 6.7-2.4 10.6 0 14.2 11.7 25.9 25.9 25.9s25.9-11.7 25.9-25.9c0-14.3-11.7-26-25.9-26zm-75.6-38.8c0-4.7 3.9-8.6 8.6-8.6 4.7 0 8.6 3.9 8.6 8.6 0 4.7-3.9 8.6-8.6 8.6-4.7 0-8.6-3.9-8.6-8.6zm75.6 73.4c-4.7 0-8.6-3.9-8.6-8.6 0-4.7 3.9-8.6 8.6-8.6s8.6 3.9 8.6 8.6c0 4.7-3.9 8.6-8.6 8.6z"/><path class="st0" d="M174.2 149.4c0-14.2-11.7-25.9-25.9-25.9s-25.9 11.7-25.9 25.9 11.7 25.9 25.9 25.9 25.9-11.6 25.9-25.9zm-34.6 0c0-4.7 3.9-8.6 8.6-8.6 4.7 0 8.6 3.9 8.6 8.6 0 4.7-3.9 8.6-8.6 8.6-4.7.1-8.6-3.8-8.6-8.6zM81.4 240.1c14.2 0 25.9-11.7 25.9-25.9s-11.7-25.9-25.9-25.9-25.9 11.7-25.9 25.9 11.6 25.9 25.9 25.9zm0-34.5c4.7 0 8.6 3.9 8.6 8.6 0 4.7-3.9 8.6-8.6 8.6-4.7 0-8.6-3.9-8.6-8.6-.1-4.8 3.8-8.6 8.6-8.6z"/><path class="st0" d="M215.2 188.3c-11.2 0-20.7 7.1-24.4 17.3h-18.1c-3.7-10.1-13.2-17.3-24.4-17.3-6.5 0-12.3 2.4-16.6 6L102.1 165c3.2-4.3 5.2-9.7 5.2-15.5 0-11.2-7.1-20.7-17.3-24.4v-16c10.1-3.7 17.3-13.2 17.3-24.4 0-14.2-11.7-25.9-25.9-25.9S55.5 70.4 55.5 84.7c0 11.2 7.1 20.7 17.3 24.4v16c-10.1 3.7-17.3 13.2-17.3 24.4 0 14.2 11.7 25.9 25.9 25.9 2.2 0 4.1-.2 6-.6l35.4 35.4c-.2 1.3-.4 2.6-.4 4.1 0 14.2 11.7 25.9 25.9 25.9 11.2 0 20.7-7.1 24.4-17.3h18.1c3.7 10.1 13.2 17.3 24.4 17.3 14.2 0 25.9-11.7 25.9-25.9 0-14.4-11.7-26-25.9-26zM81.4 76c4.7 0 8.6 3.9 8.6 8.6 0 4.7-3.9 8.6-8.6 8.6-4.7 0-8.6-3.9-8.6-8.6-.1-4.7 3.8-8.6 8.6-8.6zm-8.7 73.4c0-4.7 3.9-8.6 8.6-8.6 4.7 0 8.6 3.9 8.6 8.6 0 4.7-3.9 8.6-8.6 8.6-4.7.1-8.6-3.8-8.6-8.6zm75.6 73.4c-4.7 0-8.6-3.9-8.6-8.6 0-4.7 3.9-8.6 8.6-8.6 4.7 0 8.6 3.9 8.6 8.6 0 4.7-3.9 8.6-8.6 8.6zm66.9 0c-4.7 0-8.6-3.9-8.6-8.6 0-4.7 3.9-8.6 8.6-8.6s8.6 3.9 8.6 8.6c0 4.7-3.9 8.6-8.6 8.6z"/></g></svg>
