<?xml version="1.0" encoding="utf-8"?>
<!-- Generator: Adobe Illustrator 22.1.0, SVG Export Plug-In . SVG Version: 6.00 Build 0)  -->
<svg version="1.1" id="Layer_1" xmlns="http://www.w3.org/2000/svg" xmlns:xlink="http://www.w3.org/1999/xlink" x="0px" y="0px"
	 viewBox="0 0 300 300" style="enable-background:new 0 0 300 300;" xml:space="preserve">
<style type="text/css">
	.st0{fill:white;}
</style>
<g>
	<path class="st0" d="M215.2,58.8c-14.2,0-25.9,11.7-25.9,25.9s11.7,25.9,25.9,25.9c14.2,0,25.9-11.7,25.9-25.9
		S229.4,58.8,215.2,58.8z M215.2,93.3c-4.7,0-8.6-3.9-8.6-8.6c0-4.7,3.9-8.6,8.6-8.6s8.6,3.9,8.6,8.6
		C223.8,89.4,219.9,93.3,215.2,93.3z"/>
	<path class="st0" d="M215.2,123.5c-4.1,0-8.2,1.1-11.7,2.8L172,94.8c1.3-3.2,2.2-6.5,2.2-10.1c0-14.2-11.7-25.9-25.9-25.9
		c-14.2,0-25.9,11.7-25.9,25.9s11.7,25.9,25.9,25.9c4.3,0,8.4-1.1,12.1-3l31.3,31.3c-1.5,3.2-2.4,6.7-2.4,10.6
		c0,14.2,11.7,25.9,25.9,25.9c14.2,0,25.9-11.7,25.9-25.9C241.1,135.2,229.4,123.5,215.2,123.5z M139.6,84.7c0-4.7,3.9-8.6,8.6-8.6
		c4.7,0,8.6,3.9,8.6,8.6c0,4.7-3.9,8.6-8.6,8.6C143.5,93.3,139.6,89.4,139.6,84.7z M215.2,158.1c-4.7,0-8.6-3.9-8.6-8.6
		c0-4.7,3.9-8.6,8.6-8.6s8.6,3.9,8.6,8.6C223.8,154.2,219.9,158.1,215.2,158.1z"/>
	<path class="st0" d="M174.2,149.4c0-14.2-11.7-25.9-25.9-25.9c-14.2,0-25.9,11.7-25.9,25.9c0,14.2,11.7,25.9,25.9,25.9
		C162.5,175.3,174.2,163.7,174.2,149.4z M139.6,149.4c0-4.7,3.9-8.6,8.6-8.6c4.7,0,8.6,3.9,8.6,8.6c0,4.7-3.9,8.6-8.6,8.6
		C143.5,158.1,139.6,154.2,139.6,149.4z"/>
	<path class="st0" d="M81.4,240.1c14.2,0,25.9-11.7,25.9-25.9c0-14.2-11.7-25.9-25.9-25.9s-25.9,11.7-25.9,25.9
		C55.5,228.4,67.1,240.1,81.4,240.1z M81.4,205.6c4.7,0,8.6,3.9,8.6,8.6c0,4.7-3.9,8.6-8.6,8.6c-4.7,0-8.6-3.9-8.6-8.6
		C72.7,209.4,76.6,205.6,81.4,205.6z"/>
	<path class="st0" d="M215.2,188.3c-11.2,0-20.7,7.1-24.4,17.3h-18.1c-3.7-10.1-13.2-17.3-24.4-17.3c-6.5,0-12.3,2.4-16.6,6
		L102.1,165c3.2-4.3,5.2-9.7,5.2-15.5c0-11.2-7.1-20.7-17.3-24.4v-16c10.1-3.7,17.3-13.2,17.3-24.4c0-14.2-11.7-25.9-25.9-25.9
		S55.5,70.4,55.5,84.7c0,11.2,7.1,20.7,17.3,24.4v16c-10.1,3.7-17.3,13.2-17.3,24.4c0,14.2,11.7,25.9,25.9,25.9c2.2,0,4.1-0.2,6-0.6
		l35.4,35.4c-0.2,1.3-0.4,2.6-0.4,4.1c0,14.2,11.7,25.9,25.9,25.9c11.2,0,20.7-7.1,24.4-17.3h18.1c3.7,10.1,13.2,17.3,24.4,17.3
		c14.2,0,25.9-11.7,25.9-25.9C241.1,199.9,229.4,188.3,215.2,188.3z M81.4,76c4.7,0,8.6,3.9,8.6,8.6c0,4.7-3.9,8.6-8.6,8.6
		c-4.7,0-8.6-3.9-8.6-8.6C72.7,79.9,76.6,76,81.4,76z M72.7,149.4c0-4.7,3.9-8.6,8.6-8.6c4.7,0,8.6,3.9,8.6,8.6
		c0,4.7-3.9,8.6-8.6,8.6C76.6,158.1,72.7,154.2,72.7,149.4z M148.3,222.8c-4.7,0-8.6-3.9-8.6-8.6c0-4.7,3.9-8.6,8.6-8.6
		c4.7,0,8.6,3.9,8.6,8.6C156.9,218.9,153,222.8,148.3,222.8z M215.2,222.8c-4.7,0-8.6-3.9-8.6-8.6c0-4.7,3.9-8.6,8.6-8.6
		s8.6,3.9,8.6,8.6C223.8,218.9,219.9,222.8,215.2,222.8z"/>
</g>
</svg>
